# xmcd
#
# Track frame offsets:
#	150
#	2767
#	25705
#	43649
#	79519
#	123036
#	136871
#	167400
#	203037
#	231899
#	269152
#
# Disc length: 4000 seconds
#
# Revision: 0
# Processed by: cddbd v1.5.2PL0 Copyright (c) Steve Scherf et al.
# Submitted via: audiograbber 1.83.01
#
DISCID=810f9e0b
DTITLE=Grateful Dead - 93-12-08 Los Angeles Sports Arena, Los Angeles CA
DYEAR=1900
DGENRE=
TTITLE0=Tuning
TTITLE1=Rain
TTITLE2=Let The Good Times Roll
TTITLE3=I'm A King Bee
TTITLE4=Stagger Lee
TTITLE5=Me and My Uncle
TTITLE6=Mexicali Blues
TTITLE7=Lazy River Road
TTITLE8=When I Paint My Masterpiece
TTITLE9=Row Jimmy
TTITLE10=Picasso Moon
EXTD=
EXTT0=
EXTT1=
EXTT2=
EXTT3=
EXTT4=
EXTT5=
EXTT6=
EXTT7=
EXTT8=
EXTT9=
EXTT10=
PLAYORDER=
